<svg width="60" height="39" viewBox="0 0 60 39" fill="none" xmlns="http://www.w3.org/2000/svg">
<circle cx="40.5" cy="19.5" r="18" stroke="#FE950D" stroke-width="3"/>
<circle cx="19.5" cy="19.5" r="19.5" fill="#203D49"/>
<path fill-rule="evenodd" clip-rule="evenodd" d="M19.5 39C30.2696 39 39 30.2696 39 19.5C39 8.73045 30.2696 0 19.5 0C14.7706 0 10.4343 1.68369 7.05809 4.48438H28.0314C28.1598 4.48438 28.283 4.53541 28.3739 4.62625C28.4647 4.71708 28.5157 4.84029 28.5157 4.96875V32.0938C28.5157 32.2222 28.4647 32.3454 28.3739 32.4363C28.283 32.5271 28.1598 32.5781 28.0314 32.5781H27.0626V34.0312C27.0626 34.1597 27.0116 34.2829 26.9207 34.3738C26.8299 34.4646 26.7067 34.5156 26.5782 34.5156H7.05809C10.4343 37.3163 14.7706 39 19.5 39ZM5.97461 33.5469H26.0939V32.5781H5.03561C5.33743 32.9117 5.65064 33.2349 5.97461 33.5469ZM4.21461 31.6094H10.1095V26.7656H1.39854C2.10376 28.521 3.05689 30.15 4.21461 31.6094ZM1.03906 25.7969H10.1095V20.9531H0.053325C0.177302 22.6361 0.514881 24.2597 1.03906 25.7969ZM0.00589833 19.9844H0.509165C0.417804 19.7391 0.396602 19.4732 0.447937 19.2165C0.499271 18.9598 0.621112 18.7225 0.79979 18.5312C0.556816 18.2671 0.42196 17.9214 0.42196 17.5625C0.42196 17.2036 0.556816 16.8579 0.79979 16.5938C0.610383 16.3861 0.48555 16.1278 0.440543 15.8504C0.395536 15.573 0.432304 15.2884 0.546353 15.0316C0.660403 14.7747 0.846797 14.5566 1.08276 14.4039C1.31873 14.2513 1.59406 14.1706 1.8751 14.1719H7.6876C7.96848 14.171 8.24354 14.2519 8.47922 14.4047C8.71489 14.5576 8.90099 14.7757 9.0148 15.0325C9.12861 15.2893 9.16521 15.5736 9.12014 15.8509C9.07507 16.1281 8.95027 16.3862 8.76098 16.5938C9.00395 16.8579 9.13881 17.2036 9.13881 17.5625C9.13881 17.9214 9.00395 18.2671 8.76098 18.5312C8.93965 18.7225 9.0615 18.9598 9.11283 19.2165C9.16417 19.4732 9.14296 19.7391 9.0516 19.9844H10.1095V8.35938H3.49365C1.29145 11.5175 0 15.3579 0 19.5C0 19.6619 0.00197369 19.8234 0.00589833 19.9844ZM4.21461 7.39062H10.1095V5.45312H5.97461C5.3459 6.05864 4.75774 6.70596 4.21461 7.39062ZM18.8282 5.45312H11.0782V31.6094H18.8282V5.45312ZM1.5326 15.2825C1.44176 15.3733 1.39073 15.4965 1.39073 15.625C1.39073 15.7535 1.44176 15.8767 1.5326 15.9675C1.62344 16.0583 1.74664 16.1094 1.8751 16.1094H7.6876C7.81607 16.1094 7.93927 16.0583 8.03011 15.9675C8.12095 15.8767 8.17198 15.7535 8.17198 15.625C8.17198 15.4965 8.12095 15.3733 8.03011 15.2825C7.93927 15.1917 7.81607 15.1406 7.6876 15.1406H1.8751C1.74664 15.1406 1.62344 15.1917 1.5326 15.2825ZM1.5326 17.22C1.44176 17.3108 1.39073 17.434 1.39073 17.5625C1.39073 17.691 1.44176 17.8142 1.5326 17.905C1.62344 17.9958 1.74664 18.0469 1.8751 18.0469H7.6876C7.81607 18.0469 7.93927 17.9958 8.03011 17.905C8.12095 17.8142 8.17198 17.691 8.17198 17.5625C8.17198 17.434 8.12095 17.3108 8.03011 17.22C7.93927 17.1292 7.81607 17.0781 7.6876 17.0781H1.8751C1.74664 17.0781 1.62344 17.1292 1.5326 17.22ZM1.5326 19.1575C1.44176 19.2483 1.39073 19.3715 1.39073 19.5C1.39073 19.6285 1.44176 19.7517 1.5326 19.8425C1.62344 19.9333 1.74664 19.9844 1.8751 19.9844H7.6876C7.81607 19.9844 7.93927 19.9333 8.03011 19.8425C8.12095 19.7517 8.17198 19.6285 8.17198 19.5C8.17198 19.3715 8.12095 19.2483 8.03011 19.1575C7.93927 19.0667 7.81607 19.0156 7.6876 19.0156H1.8751C1.74664 19.0156 1.62344 19.0667 1.5326 19.1575ZM19.797 31.6094H27.547V5.45312H19.797V31.6094ZM25.6095 17.5625H26.5782V19.5H25.6095V17.5625ZM17.8595 17.5625H16.8907V19.5H17.8595V17.5625ZM3.8126 21.9219H5.7501V22.8906H3.8126V21.9219ZM5.7501 27.7344H3.8126V28.7031H5.7501V27.7344Z" fill="white"/>
</svg>
