<svg width="17" height="17" viewBox="0 0 17 17" fill="none" xmlns="http://www.w3.org/2000/svg">
<g clip-path="url(#clip0_207_154)">
<path d="M10.6606 3.54159C11.3524 3.67657 11.9883 4.01493 12.4867 4.51337C12.9852 5.01181 13.3235 5.64765 13.4585 6.3395M10.6606 0.708252C12.098 0.867936 13.4384 1.51163 14.4617 2.53363C15.485 3.55564 16.1304 4.89522 16.2918 6.33242M15.5835 11.9849V14.1099C15.5843 14.3072 15.5439 14.5025 15.4649 14.6832C15.3858 14.864 15.2699 15.0262 15.1246 15.1596C14.9792 15.2929 14.8076 15.3945 14.6207 15.4577C14.4338 15.5209 14.2358 15.5443 14.0393 15.5266C11.8597 15.2897 9.76597 14.5449 7.92643 13.352C6.21497 12.2645 4.76396 10.8135 3.67643 9.102C2.47933 7.2541 1.73435 5.15021 1.50184 2.96075C1.48414 2.76487 1.50742 2.56746 1.5702 2.38107C1.63297 2.19468 1.73387 2.02341 1.86647 1.87815C1.99907 1.73289 2.16045 1.61684 2.34036 1.53737C2.52027 1.45791 2.71475 1.41677 2.91143 1.41659H5.03643C5.38019 1.4132 5.71345 1.53493 5.97409 1.75909C6.23474 1.98324 6.40498 2.29453 6.45309 2.63492C6.54278 3.31497 6.70912 3.98268 6.94893 4.62534C7.04423 4.87886 7.06485 5.1544 7.00836 5.41929C6.95187 5.68418 6.82062 5.92733 6.63018 6.11992L5.73059 7.0195C6.73895 8.79285 8.20725 10.2611 9.98059 11.2695L10.8802 10.3699C11.0728 10.1795 11.3159 10.0482 11.5808 9.99173C11.8457 9.93524 12.1212 9.95587 12.3748 10.0512C13.0174 10.291 13.6851 10.4573 14.3652 10.547C14.7093 10.5955 15.0235 10.7689 15.2481 11.034C15.4728 11.2991 15.5921 11.6375 15.5835 11.9849Z" stroke="white" stroke-linecap="round" stroke-linejoin="round"/>
</g>
<defs>
<clipPath id="clip0_207_154">
<rect width="17" height="17" fill="white"/>
</clipPath>
</defs>
</svg>
