<svg width="17" height="17" viewBox="0 0 17 17" fill="none" xmlns="http://www.w3.org/2000/svg">
<g clip-path="url(#clip0_207_451)">
<path d="M10.6606 3.54171C11.3524 3.67669 11.9883 4.01506 12.4867 4.51349C12.9852 5.01193 13.3235 5.64777 13.4585 6.33962M10.6606 0.708374C12.098 0.868058 13.4384 1.51175 14.4617 2.53375C15.485 3.55576 16.1304 4.89534 16.2918 6.33254M15.5835 11.985V14.11C15.5843 14.3073 15.5439 14.5026 15.4649 14.6833C15.3858 14.8641 15.2699 15.0263 15.1246 15.1597C14.9792 15.2931 14.8076 15.3946 14.6207 15.4578C14.4338 15.521 14.2358 15.5445 14.0393 15.5267C11.8597 15.2899 9.76597 14.5451 7.92643 13.3521C6.21497 12.2646 4.76396 10.8136 3.67643 9.10212C2.47933 7.25423 1.73435 5.15033 1.50184 2.96087C1.48414 2.765 1.50742 2.56758 1.5702 2.38119C1.63297 2.1948 1.73387 2.02353 1.86647 1.87827C1.99907 1.73302 2.16045 1.61696 2.34036 1.53749C2.52027 1.45803 2.71475 1.41689 2.91143 1.41671H5.03643C5.38019 1.41332 5.71345 1.53505 5.97409 1.75921C6.23474 1.98336 6.40498 2.29465 6.45309 2.63504C6.54278 3.31509 6.70912 3.98281 6.94893 4.62546C7.04423 4.87899 7.06485 5.15452 7.00836 5.41941C6.95187 5.68431 6.82062 5.92745 6.63018 6.12004L5.73059 7.01962C6.73895 8.79297 8.20725 10.2613 9.98059 11.2696L10.8802 10.37C11.0728 10.1796 11.3159 10.0484 11.5808 9.99186C11.8457 9.93536 12.1212 9.95599 12.3748 10.0513C13.0174 10.2911 13.6851 10.4574 14.3652 10.5471C14.7093 10.5957 15.0235 10.769 15.2481 11.0341C15.4728 11.2992 15.5921 11.6377 15.5835 11.985Z" stroke="#221F1C" stroke-linecap="round" stroke-linejoin="round"/>
</g>
<defs>
<clipPath id="clip0_207_451">
<rect width="17" height="17" fill="white"/>
</clipPath>
</defs>
</svg>
